<?xml version="1.0" encoding="UTF-8" standalone="no"?>
<!-- Created with Inkscape (http://www.inkscape.org/) -->

<svg
   xmlns:dc="http://purl.org/dc/elements/1.1/"
   xmlns:cc="http://creativecommons.org/ns#"
   xmlns:rdf="http://www.w3.org/1999/02/22-rdf-syntax-ns#"
   xmlns:svg="http://www.w3.org/2000/svg"
   xmlns="http://www.w3.org/2000/svg"
   xmlns:sodipodi="http://sodipodi.sourceforge.net/DTD/sodipodi-0.dtd"
   xmlns:inkscape="http://www.inkscape.org/namespaces/inkscape"
   id="svg2"
   version="1.1"
   inkscape:version="0.48.4 r9939"
   width="122.28477"
   height="120.52124"
   sodipodi:docname="puzzle_piece_inkscape.svg">
  <metadata
     id="metadata8">
    <rdf:RDF>
      <cc:Work
         rdf:about="">
        <dc:format>image/svg+xml</dc:format>
        <dc:type
           rdf:resource="http://purl.org/dc/dcmitype/StillImage" />
        <dc:title></dc:title>
      </cc:Work>
    </rdf:RDF>
  </metadata>
  <defs
     id="defs6" />
  <sodipodi:namedview
     pagecolor="#ffffff"
     bordercolor="#666666"
     borderopacity="1"
     objecttolerance="10"
     gridtolerance="10"
     guidetolerance="10"
     inkscape:pageopacity="0"
     inkscape:pageshadow="2"
     inkscape:window-width="1920"
     inkscape:window-height="1021"
     id="namedview4"
     showgrid="false"
     inkscape:zoom="1.8294574"
     inkscape:cx="187.62721"
     inkscape:cy="137.67794"
     inkscape:window-x="0"
     inkscape:window-y="0"
     inkscape:window-maximized="1"
     inkscape:current-layer="svg2"
     fit-margin-top="0"
     fit-margin-left="0"
     fit-margin-right="0"
     fit-margin-bottom="0" />
  <path
     style="fill:#ed7013;fill-opacity:1;stroke:none"
     d="m 24.496763,29.211045 c 0,0 8.310003,31.693964 2.125815,32.273732 -6.184189,0.579768 -7.150468,-7.923491 -13.1414,-8.696515 C 7.4902464,52.015239 1.4993137,59.93873 0.14652259,70.761059 -1.2062686,81.583388 7.1037342,86.994553 12.90141,87.767576 c 5.797677,0.773024 15.073959,-5.894304 15.073959,-5.894304 6.616753,2.122265 1.976541,28.102388 2.125814,36.428728 0,0 28.022103,5.21791 33.240012,-0.77302 5.217908,-5.99093 -6.02409,-5.46777 -6.410602,-17.25638 -0.386512,-11.788603 13.06905,-11.439271 16.740912,-11.439271 0,0 16.033451,-1.22442 15.820078,9.926415 -0.102823,5.373526 -1.379063,10.665386 -5.96596,13.628126 -5.82885,3.11181 -3.131239,7.9416 5.142612,8.13137 7.789195,0.0683 31.566735,-1.63983 31.566735,-1.63983 l 2.04979,-34.573087 c 0,0 -0.54662,-5.329449 -4.78284,-4.236229 -2.91099,0.751224 -21.112816,12.854816 -21.112817,-10.376119 0,0 -2.254766,-22.547669 20.429557,-12.162075 6.86548,-4.464347 2.86393,-20.870679 2.73305,-29.116467 0,0 -32.523306,8.0625 -32.113348,-6.149364 0,0 -1.312276,-1.178136 7.475865,-8.37583 C 102.16893,7.9484645 83.670559,-0.83600163 76.642323,0.06405407 62.45687,2.1602659 53.180334,11.138713 65.30065,21.446154 c 0,0 9.402819,15.666435 -40.803887,7.764891 z"
     inkscape:connector-curvature="0"
     sodipodi:nodetypes="cssssccsscsccccsccccsccc"
     id="path6"
     inkscape:export-filename="/home/epeli/code/puavo-ticket/public/images/favicon.png"
     inkscape:export-xdpi="147.1974"
     inkscape:export-ydpi="147.1974" />
</svg>
