<?xml version="1.0" encoding="UTF-8" standalone="no"?>
<!-- Created with Inkscape (http://www.inkscape.org/) -->

<svg
   xmlns:dc="http://purl.org/dc/elements/1.1/"
   xmlns:cc="http://creativecommons.org/ns#"
   xmlns:rdf="http://www.w3.org/1999/02/22-rdf-syntax-ns#"
   xmlns:svg="http://www.w3.org/2000/svg"
   xmlns="http://www.w3.org/2000/svg"
   xmlns:sodipodi="http://sodipodi.sourceforge.net/DTD/sodipodi-0.dtd"
   xmlns:inkscape="http://www.inkscape.org/namespaces/inkscape"
   id="svg2"
   version="1.1"
   inkscape:version="0.48.4 r9939"
   width="129"
   height="129"
   sodipodi:docname="puzzle_piece_inkscape.svg">
  <metadata
     id="metadata8">
    <rdf:RDF>
      <cc:Work
         rdf:about="">
        <dc:format>image/svg+xml</dc:format>
        <dc:type
           rdf:resource="http://purl.org/dc/dcmitype/StillImage" />
        <dc:title></dc:title>
      </cc:Work>
    </rdf:RDF>
  </metadata>
  <defs
     id="defs6" />
  <sodipodi:namedview
     pagecolor="#ffffff"
     bordercolor="#666666"
     borderopacity="1"
     objecttolerance="10"
     gridtolerance="10"
     guidetolerance="10"
     inkscape:pageopacity="0"
     inkscape:pageshadow="2"
     inkscape:window-width="952"
     inkscape:window-height="1017"
     id="namedview4"
     showgrid="false"
     inkscape:zoom="3.6589147"
     inkscape:cx="-3.7283955"
     inkscape:cy="63.218651"
     inkscape:window-x="960"
     inkscape:window-y="0"
     inkscape:window-maximized="0"
     inkscape:current-layer="svg2" />
  <path
     style="fill:#ed7013;fill-opacity:1;stroke:none;stroke-width:4;stroke-linecap:butt;stroke-linejoin:round;stroke-miterlimit:8.89999961999999911;stroke-opacity:1;stroke-dasharray:none"
     d="m 27.249079,31.405781 c 0,0 8.310003,31.693964 2.125815,32.273732 -6.184189,0.579768 -7.150468,-7.923491 -13.1414,-8.696515 C 10.242562,54.209975 4.2516293,62.133466 2.8988382,72.955795 1.546047,83.778124 9.8560498,89.189289 15.653726,89.962312 c 5.797677,0.773024 15.073959,-5.894304 15.073959,-5.894304 6.616753,2.122265 1.976541,28.102392 2.125814,36.428732 0,0 28.022103,5.21791 33.240012,-0.77302 5.217908,-5.99093 -6.02409,-5.46777 -6.410602,-17.25638 -0.386512,-11.788607 13.06905,-11.439275 16.740912,-11.439275 0,0 19.195009,-1.231417 16.909865,9.684845 -2.236176,10.68235 -1.69359,7.88951 -8.404131,16.80828 0,0 -0.478284,3.27966 6.490996,5.19279 6.96928,1.91314 31.566739,-1.63983 31.566739,-1.63983 l 2.04979,-34.573091 c 0,0 -0.54662,-5.329449 -4.78284,-4.236229 -2.91099,0.751224 -23.025956,17.227697 -25.759007,-11.469339 0,0 2.39142,-26.920551 25.075747,-11.068855 6.86548,-4.464347 2.86393,-20.870679 2.73305,-29.116467 0,0 -32.52331,8.0625 -32.113352,-6.149364 0,0 -1.312276,-1.178136 7.475865,-8.37583 C 104.92125,10.1432 86.422875,1.3587339 79.394639,2.2587896 65.209186,4.3550014 55.93265,13.333449 68.052966,23.64089 c 0,0 9.402819,15.666435 -40.803887,7.764891 z"
     inkscape:connector-curvature="0"
     sodipodi:nodetypes="cssssccsscscsccsccccsccc"
     id="path6"
     inkscape:export-filename="/home/epeli/code/puavo-ticket/public/images/favicon.png"
     inkscape:export-xdpi="147.1974"
     inkscape:export-ydpi="147.1974" />
</svg>
